<mxfile host="65bd71144e">
    <diagram id="Zq9O52znmWCXumJ1EIR5" name="Page-1">
        <mxGraphModel dx="1539" dy="518" grid="1" gridSize="10" guides="1" tooltips="1" connect="1" arrows="1" fold="1" page="0" pageScale="1" pageWidth="850" pageHeight="1100" math="0" shadow="0">
            <root>
                <mxCell id="0"/>
                <mxCell id="1" parent="0"/>
                <mxCell id="2" value="&lt;div style=&quot;background-color: rgb(8, 22, 32); font-family: Consolas, Consolas, &amp;quot;Courier New&amp;quot;, monospace; font-size: 14px; line-height: 19px;&quot;&gt;&lt;div style=&quot;line-height: 19px;&quot;&gt;&lt;div style=&quot;color: rgb(246, 250, 253); line-height: 19px;&quot;&gt;&lt;span style=&quot;color: #00b4d6;font-style: italic;&quot;&gt;class&lt;/span&gt; &lt;span style=&quot;color: #f4e286;&quot;&gt;Remote&lt;/span&gt;&lt;/div&gt;&lt;/div&gt;&lt;/div&gt;" style="swimlane;fontStyle=0;childLayout=stackLayout;horizontal=1;startSize=30;horizontalStack=0;resizeParent=1;resizeParentMax=0;resizeLast=0;collapsible=1;marginBottom=0;whiteSpace=wrap;html=1;" parent="1" vertex="1">
                    <mxGeometry x="-10" y="200" width="290" height="190" as="geometry"/>
                </mxCell>
                <mxCell id="3" value="&lt;span style=&quot;background-color: rgb(8, 22, 32); font-family: Consolas, Consolas, &amp;quot;Courier New&amp;quot;, monospace; font-size: 14px; color: rgb(194, 142, 96); font-style: italic;&quot;&gt;protected&lt;/span&gt;&lt;span style=&quot;background-color: rgb(8, 22, 32); color: rgb(246, 250, 253); font-family: Consolas, Consolas, &amp;quot;Courier New&amp;quot;, monospace; font-size: 14px;&quot;&gt; &lt;/span&gt;&lt;span style=&quot;background-color: rgb(8, 22, 32); font-family: Consolas, Consolas, &amp;quot;Courier New&amp;quot;, monospace; font-size: 14px; color: rgb(178, 168, 180);&quot;&gt;device&lt;/span&gt;&lt;span style=&quot;background-color: rgb(8, 22, 32); font-family: Consolas, Consolas, &amp;quot;Courier New&amp;quot;, monospace; font-size: 14px; color: rgb(194, 142, 96);&quot;&gt;:&lt;/span&gt;&lt;span style=&quot;background-color: rgb(8, 22, 32); color: rgb(246, 250, 253); font-family: Consolas, Consolas, &amp;quot;Courier New&amp;quot;, monospace; font-size: 14px;&quot;&gt; &lt;/span&gt;&lt;span style=&quot;background-color: rgb(8, 22, 32); font-family: Consolas, Consolas, &amp;quot;Courier New&amp;quot;, monospace; font-size: 14px; color: rgb(210, 216, 216);&quot;&gt;Device&lt;/span&gt;&lt;span style=&quot;background-color: rgb(8, 22, 32); font-family: Consolas, Consolas, &amp;quot;Courier New&amp;quot;, monospace; font-size: 14px; color: rgb(244, 226, 134);&quot;&gt;;&lt;/span&gt;" style="text;strokeColor=default;fillColor=none;align=left;verticalAlign=middle;spacingLeft=4;spacingRight=4;overflow=hidden;points=[[0,0.5],[1,0.5]];portConstraint=eastwest;rotatable=0;whiteSpace=wrap;html=1;strokeWidth=1;" parent="2" vertex="1">
                    <mxGeometry y="30" width="290" height="40" as="geometry"/>
                </mxCell>
                <mxCell id="5" value="&lt;span style=&quot;font-family: Consolas, Consolas, &amp;quot;Courier New&amp;quot;, monospace; font-size: 14px; color: rgb(244, 226, 134);&quot;&gt;openCloseWindows()&lt;/span&gt;&lt;span style=&quot;color: rgb(244, 226, 134); font-family: Consolas, Consolas, &amp;quot;Courier New&amp;quot;, monospace; font-size: 14px; background-color: rgb(8, 22, 32);&quot;&gt;: &lt;/span&gt;&lt;font face=&quot;Consolas, Consolas, Courier New, monospace&quot; color=&quot;#f4e286&quot;&gt;&lt;span style=&quot;font-size: 14px; background-color: rgb(8, 22, 32);&quot;&gt;{...}&lt;/span&gt;&lt;/font&gt;" style="text;strokeColor=none;fillColor=none;align=left;verticalAlign=middle;spacingLeft=4;spacingRight=4;overflow=hidden;points=[[0,0.5],[1,0.5]];portConstraint=eastwest;rotatable=0;whiteSpace=wrap;html=1;" parent="2" vertex="1">
                    <mxGeometry y="70" width="290" height="40" as="geometry"/>
                </mxCell>
                <mxCell id="6" value="&lt;span style=&quot;color: rgb(244, 226, 134); background-color: rgb(8, 22, 32); font-family: Consolas, Consolas, &amp;quot;Courier New&amp;quot;, monospace; font-size: 14px;&quot;&gt;switchMusic()&lt;/span&gt;&lt;span style=&quot;color: rgb(244, 226, 134); font-family: Consolas, Consolas, &amp;quot;Courier New&amp;quot;, monospace; font-size: 14px; background-color: rgb(8, 22, 32);&quot;&gt;: &lt;/span&gt;&lt;font face=&quot;Consolas, Consolas, Courier New, monospace&quot; color=&quot;#f4e286&quot;&gt;&lt;span style=&quot;font-size: 14px; background-color: rgb(8, 22, 32);&quot;&gt;{...}&lt;/span&gt;&lt;/font&gt;" style="text;strokeColor=none;fillColor=none;align=left;verticalAlign=middle;spacingLeft=4;spacingRight=4;overflow=hidden;points=[[0,0.5],[1,0.5]];portConstraint=eastwest;rotatable=0;whiteSpace=wrap;html=1;" parent="2" vertex="1">
                    <mxGeometry y="110" width="290" height="40" as="geometry"/>
                </mxCell>
                <mxCell id="12" value="&lt;span style=&quot;font-family: Consolas, Consolas, &amp;quot;Courier New&amp;quot;, monospace; font-size: 14px; color: rgb(244, 226, 134);&quot;&gt;setVolume(&lt;/span&gt;&lt;span style=&quot;font-family: Consolas, Consolas, &amp;quot;Courier New&amp;quot;, monospace; font-size: 14px; color: rgb(152, 212, 220);&quot;&gt;volume&lt;/span&gt;&lt;span style=&quot;font-family: Consolas, Consolas, &amp;quot;Courier New&amp;quot;, monospace; font-size: 14px; color: rgb(194, 142, 96);&quot;&gt;:&lt;/span&gt;&lt;span style=&quot;background-color: rgb(8, 22, 32); color: rgb(246, 250, 253); font-family: Consolas, Consolas, &amp;quot;Courier New&amp;quot;, monospace; font-size: 14px;&quot;&gt; &lt;/span&gt;&lt;span style=&quot;font-family: Consolas, Consolas, &amp;quot;Courier New&amp;quot;, monospace; font-size: 14px; color: rgb(244, 226, 134);&quot;&gt;number)&lt;/span&gt;&lt;span style=&quot;color: rgb(244, 226, 134); font-family: Consolas, Consolas, &amp;quot;Courier New&amp;quot;, monospace; font-size: 14px; background-color: rgb(8, 22, 32);&quot;&gt;&amp;nbsp;&lt;/span&gt;&lt;font face=&quot;Consolas, Consolas, Courier New, monospace&quot; color=&quot;#f4e286&quot;&gt;&lt;span style=&quot;font-size: 14px; background-color: rgb(8, 22, 32);&quot;&gt;{...}&lt;/span&gt;&lt;/font&gt;" style="text;strokeColor=none;fillColor=none;align=left;verticalAlign=middle;spacingLeft=4;spacingRight=4;overflow=hidden;points=[[0,0.5],[1,0.5]];portConstraint=eastwest;rotatable=0;whiteSpace=wrap;html=1;" parent="2" vertex="1">
                    <mxGeometry y="150" width="290" height="40" as="geometry"/>
                </mxCell>
                <mxCell id="7" value="&lt;div style=&quot;background-color: rgb(8, 22, 32); font-family: Consolas, Consolas, &amp;quot;Courier New&amp;quot;, monospace; font-size: 14px; line-height: 19px;&quot;&gt;&lt;div style=&quot;line-height: 19px;&quot;&gt;&lt;div style=&quot;color: rgb(246, 250, 253); line-height: 19px;&quot;&gt;&lt;span style=&quot;color: #00b4d6;font-style: italic;&quot;&gt;interface&lt;/span&gt; &lt;span style=&quot;color: #d2d8d8;&quot;&gt;Device&lt;/span&gt;&lt;/div&gt;&lt;/div&gt;&lt;/div&gt;" style="swimlane;fontStyle=0;childLayout=stackLayout;horizontal=1;startSize=30;horizontalStack=0;resizeParent=1;resizeParentMax=0;resizeLast=0;collapsible=1;marginBottom=0;whiteSpace=wrap;html=1;" parent="1" vertex="1">
                    <mxGeometry x="470" y="130" width="270" height="310" as="geometry"/>
                </mxCell>
                <mxCell id="18" value="&lt;div style=&quot;color: rgb(246, 250, 253); background-color: rgb(8, 22, 32); font-family: Consolas, Consolas, &amp;quot;Courier New&amp;quot;, monospace; font-size: 14px; line-height: 19px;&quot;&gt;&lt;span style=&quot;color: #f4e286;&quot;&gt;isOpened();&lt;/span&gt;&lt;/div&gt;" style="text;strokeColor=none;fillColor=none;align=left;verticalAlign=middle;spacingLeft=4;spacingRight=4;overflow=hidden;points=[[0,0.5],[1,0.5]];portConstraint=eastwest;rotatable=0;whiteSpace=wrap;html=1;" parent="7" vertex="1">
                    <mxGeometry y="30" width="270" height="40" as="geometry"/>
                </mxCell>
                <mxCell id="17" value="&lt;div style=&quot;color: rgb(246, 250, 253); background-color: rgb(8, 22, 32); font-family: Consolas, Consolas, &amp;quot;Courier New&amp;quot;, monospace; font-size: 14px; line-height: 19px;&quot;&gt;&lt;span style=&quot;color: #f4e286;&quot;&gt;openWindow();&lt;/span&gt;&lt;/div&gt;" style="text;strokeColor=none;fillColor=none;align=left;verticalAlign=middle;spacingLeft=4;spacingRight=4;overflow=hidden;points=[[0,0.5],[1,0.5]];portConstraint=eastwest;rotatable=0;whiteSpace=wrap;html=1;" parent="7" vertex="1">
                    <mxGeometry y="70" width="270" height="40" as="geometry"/>
                </mxCell>
                <mxCell id="16" value="&lt;div style=&quot;color: rgb(246, 250, 253); background-color: rgb(8, 22, 32); font-family: Consolas, Consolas, &amp;quot;Courier New&amp;quot;, monospace; font-size: 14px; line-height: 19px;&quot;&gt;&lt;span style=&quot;color: #f4e286;&quot;&gt;closeWindow();&lt;/span&gt;&lt;/div&gt;" style="text;strokeColor=none;fillColor=none;align=left;verticalAlign=middle;spacingLeft=4;spacingRight=4;overflow=hidden;points=[[0,0.5],[1,0.5]];portConstraint=eastwest;rotatable=0;whiteSpace=wrap;html=1;" parent="7" vertex="1">
                    <mxGeometry y="110" width="270" height="40" as="geometry"/>
                </mxCell>
                <mxCell id="15" value="&lt;div style=&quot;color: rgb(246, 250, 253); background-color: rgb(8, 22, 32); font-family: Consolas, Consolas, &amp;quot;Courier New&amp;quot;, monospace; font-size: 14px; line-height: 19px;&quot;&gt;&lt;span style=&quot;color: #f4e286;&quot;&gt;isOn();&lt;/span&gt;&lt;/div&gt;" style="text;strokeColor=none;fillColor=none;align=left;verticalAlign=middle;spacingLeft=4;spacingRight=4;overflow=hidden;points=[[0,0.5],[1,0.5]];portConstraint=eastwest;rotatable=0;whiteSpace=wrap;html=1;" parent="7" vertex="1">
                    <mxGeometry y="150" width="270" height="40" as="geometry"/>
                </mxCell>
                <mxCell id="14" value="&lt;div style=&quot;color: rgb(246, 250, 253); background-color: rgb(8, 22, 32); font-family: Consolas, Consolas, &amp;quot;Courier New&amp;quot;, monospace; font-size: 14px; line-height: 19px;&quot;&gt;&lt;span style=&quot;color: #f4e286;&quot;&gt;turnMusicOn();&lt;/span&gt;&lt;/div&gt;" style="text;strokeColor=none;fillColor=none;align=left;verticalAlign=middle;spacingLeft=4;spacingRight=4;overflow=hidden;points=[[0,0.5],[1,0.5]];portConstraint=eastwest;rotatable=0;whiteSpace=wrap;html=1;" parent="7" vertex="1">
                    <mxGeometry y="190" width="270" height="40" as="geometry"/>
                </mxCell>
                <mxCell id="13" value="&lt;div style=&quot;color: rgb(246, 250, 253); background-color: rgb(8, 22, 32); font-family: Consolas, Consolas, &amp;quot;Courier New&amp;quot;, monospace; font-size: 14px; line-height: 19px;&quot;&gt;&lt;span style=&quot;color: #f4e286;&quot;&gt;turnMusicOff();&lt;/span&gt;&lt;/div&gt;" style="text;strokeColor=none;fillColor=none;align=left;verticalAlign=middle;spacingLeft=4;spacingRight=4;overflow=hidden;points=[[0,0.5],[1,0.5]];portConstraint=eastwest;rotatable=0;whiteSpace=wrap;html=1;" parent="7" vertex="1">
                    <mxGeometry y="230" width="270" height="40" as="geometry"/>
                </mxCell>
                <mxCell id="10" value="&lt;div style=&quot;color: rgb(246, 250, 253); background-color: rgb(8, 22, 32); font-family: Consolas, Consolas, &amp;quot;Courier New&amp;quot;, monospace; font-size: 14px; line-height: 19px;&quot;&gt;&lt;span style=&quot;color: #f4e286;&quot;&gt;setVolume(&lt;/span&gt;&lt;span style=&quot;color: #98d4dc;&quot;&gt;volume&lt;/span&gt;&lt;span style=&quot;color: #c28e60;&quot;&gt;:&lt;/span&gt; &lt;span style=&quot;color: #f4e286;&quot;&gt;number);&lt;/span&gt;&lt;/div&gt;" style="text;strokeColor=none;fillColor=none;align=left;verticalAlign=middle;spacingLeft=4;spacingRight=4;overflow=hidden;points=[[0,0.5],[1,0.5]];portConstraint=eastwest;rotatable=0;whiteSpace=wrap;html=1;" parent="7" vertex="1">
                    <mxGeometry y="270" width="270" height="40" as="geometry"/>
                </mxCell>
                <mxCell id="19" value="&lt;span style=&quot;background-color: rgb(8, 22, 32); font-family: Consolas, Consolas, &amp;quot;Courier New&amp;quot;, monospace; font-size: 14px; color: rgb(0, 180, 214); font-style: italic;&quot;&gt;class&lt;/span&gt;&lt;span style=&quot;background-color: rgb(8, 22, 32); color: rgb(246, 250, 253); font-family: Consolas, Consolas, &amp;quot;Courier New&amp;quot;, monospace; font-size: 14px;&quot;&gt; &lt;/span&gt;&lt;span style=&quot;background-color: rgb(8, 22, 32); font-family: Consolas, Consolas, &amp;quot;Courier New&amp;quot;, monospace; font-size: 14px; color: rgb(244, 226, 134);&quot;&gt;Windows&lt;/span&gt;&lt;span style=&quot;background-color: rgb(8, 22, 32); color: rgb(246, 250, 253); font-family: Consolas, Consolas, &amp;quot;Courier New&amp;quot;, monospace; font-size: 14px;&quot;&gt; &lt;/span&gt;&lt;span style=&quot;background-color: rgb(8, 22, 32); font-family: Consolas, Consolas, &amp;quot;Courier New&amp;quot;, monospace; font-size: 14px; color: rgb(194, 142, 96); font-style: italic;&quot;&gt;implements&lt;/span&gt;&lt;span style=&quot;background-color: rgb(8, 22, 32); color: rgb(246, 250, 253); font-family: Consolas, Consolas, &amp;quot;Courier New&amp;quot;, monospace; font-size: 14px;&quot;&gt; &lt;/span&gt;&lt;span style=&quot;background-color: rgb(8, 22, 32); font-family: Consolas, Consolas, &amp;quot;Courier New&amp;quot;, monospace; font-size: 14px; color: rgb(236, 210, 180);&quot;&gt;Device&lt;/span&gt;" style="rounded=1;whiteSpace=wrap;html=1;" parent="1" vertex="1">
                    <mxGeometry x="320" y="500" width="270" height="50" as="geometry"/>
                </mxCell>
                <mxCell id="20" value="&lt;span style=&quot;background-color: rgb(8, 22, 32); font-family: Consolas, Consolas, &amp;quot;Courier New&amp;quot;, monospace; font-size: 14px; color: rgb(0, 180, 214); font-style: italic;&quot;&gt;class&lt;/span&gt;&lt;span style=&quot;background-color: rgb(8, 22, 32); color: rgb(246, 250, 253); font-family: Consolas, Consolas, &amp;quot;Courier New&amp;quot;, monospace; font-size: 14px;&quot;&gt; &lt;/span&gt;&lt;span style=&quot;background-color: rgb(8, 22, 32); font-family: Consolas, Consolas, &amp;quot;Courier New&amp;quot;, monospace; font-size: 14px; color: rgb(244, 226, 134);&quot;&gt;Alexa&lt;/span&gt;&lt;span style=&quot;background-color: rgb(8, 22, 32); color: rgb(246, 250, 253); font-family: Consolas, Consolas, &amp;quot;Courier New&amp;quot;, monospace; font-size: 14px;&quot;&gt; &lt;/span&gt;&lt;span style=&quot;background-color: rgb(8, 22, 32); font-family: Consolas, Consolas, &amp;quot;Courier New&amp;quot;, monospace; font-size: 14px; color: rgb(194, 142, 96); font-style: italic;&quot;&gt;implements&lt;/span&gt;&lt;span style=&quot;background-color: rgb(8, 22, 32); color: rgb(246, 250, 253); font-family: Consolas, Consolas, &amp;quot;Courier New&amp;quot;, monospace; font-size: 14px;&quot;&gt; &lt;/span&gt;&lt;span style=&quot;background-color: rgb(8, 22, 32); font-family: Consolas, Consolas, &amp;quot;Courier New&amp;quot;, monospace; font-size: 14px; color: rgb(236, 210, 180);&quot;&gt;Device&lt;/span&gt;&lt;br&gt;" style="rounded=1;whiteSpace=wrap;html=1;" parent="1" vertex="1">
                    <mxGeometry x="620" y="500" width="270" height="50" as="geometry"/>
                </mxCell>
                <mxCell id="31" style="edgeStyle=none;html=1;exitX=0.5;exitY=0;exitDx=0;exitDy=0;strokeWidth=2;fontSize=14;startArrow=diamondThin;startFill=0;endArrow=block;endFill=0;endSize=12;startSize=12;" parent="1" source="22" target="2" edge="1">
                    <mxGeometry relative="1" as="geometry"/>
                </mxCell>
                <mxCell id="22" value="&lt;div style=&quot;background-color: rgb(8, 22, 32); font-family: Consolas, Consolas, &amp;quot;Courier New&amp;quot;, monospace; font-size: 14px; line-height: 19px;&quot;&gt;&lt;div style=&quot;line-height: 19px;&quot;&gt;&lt;div style=&quot;color: rgb(246, 250, 253); line-height: 19px;&quot;&gt;&lt;div style=&quot;line-height: 19px;&quot;&gt;&lt;span style=&quot;color: #00b4d6;font-style: italic;&quot;&gt;class&lt;/span&gt; &lt;span style=&quot;color: #f4e286;&quot;&gt;AdvancedRemote&lt;/span&gt; &lt;span style=&quot;color: #c28e60;font-style: italic;&quot;&gt;extends&lt;/span&gt; &lt;span style=&quot;color: #ecd2b4;&quot;&gt;Remote&lt;/span&gt;&lt;/div&gt;&lt;/div&gt;&lt;/div&gt;&lt;/div&gt;" style="swimlane;fontStyle=0;childLayout=stackLayout;horizontal=1;startSize=30;horizontalStack=0;resizeParent=1;resizeParentMax=0;resizeLast=0;collapsible=1;marginBottom=0;whiteSpace=wrap;html=1;" parent="1" vertex="1">
                    <mxGeometry x="-25" y="470" width="320" height="110" as="geometry"/>
                </mxCell>
                <mxCell id="23" value="&lt;font face=&quot;Consolas, Consolas, Courier New, monospace&quot; color=&quot;#c28e60&quot;&gt;&lt;span style=&quot;font-size: 14px; background-color: rgb(8, 22, 32);&quot;&gt;&lt;i&gt;...&lt;/i&gt;&lt;/span&gt;&lt;/font&gt;" style="text;strokeColor=default;fillColor=none;align=left;verticalAlign=middle;spacingLeft=4;spacingRight=4;overflow=hidden;points=[[0,0.5],[1,0.5]];portConstraint=eastwest;rotatable=0;whiteSpace=wrap;html=1;strokeWidth=1;" parent="22" vertex="1">
                    <mxGeometry y="30" width="320" height="40" as="geometry"/>
                </mxCell>
                <mxCell id="24" value="&lt;span style=&quot;background-color: rgb(8, 22, 32); font-family: Consolas, Consolas, &amp;quot;Courier New&amp;quot;, monospace; font-size: 14px; color: rgb(244, 226, 134);&quot;&gt;mute()&lt;/span&gt;&lt;span style=&quot;background-color: rgb(8, 22, 32); color: rgb(246, 250, 253); font-family: Consolas, Consolas, &amp;quot;Courier New&amp;quot;, monospace; font-size: 14px;&quot;&gt; &lt;/span&gt;&lt;span style=&quot;background-color: rgb(8, 22, 32); font-family: Consolas, Consolas, &amp;quot;Courier New&amp;quot;, monospace; font-size: 14px; color: rgb(244, 226, 134);&quot;&gt;{...}&lt;/span&gt;&lt;br&gt;" style="text;strokeColor=none;fillColor=none;align=left;verticalAlign=middle;spacingLeft=4;spacingRight=4;overflow=hidden;points=[[0,0.5],[1,0.5]];portConstraint=eastwest;rotatable=0;whiteSpace=wrap;html=1;" parent="22" vertex="1">
                    <mxGeometry y="70" width="320" height="40" as="geometry"/>
                </mxCell>
                <mxCell id="32" style="edgeStyle=none;html=1;entryX=0.5;entryY=0;entryDx=0;entryDy=0;strokeWidth=2;fontSize=14;startArrow=diamondThin;startFill=0;endArrow=open;endFill=0;endSize=12;startSize=12;" parent="1" source="27" target="2" edge="1">
                    <mxGeometry relative="1" as="geometry"/>
                </mxCell>
                <mxCell id="27" value="Client" style="rounded=1;whiteSpace=wrap;html=1;fontSize=14;" parent="1" vertex="1">
                    <mxGeometry x="75" y="90" width="120" height="60" as="geometry"/>
                </mxCell>
                <mxCell id="28" style="edgeStyle=none;html=1;fontSize=14;strokeWidth=2;endSize=12;endArrow=open;endFill=0;startArrow=diamondThin;startFill=0;startSize=12;" parent="1" source="5" target="7" edge="1">
                    <mxGeometry relative="1" as="geometry"/>
                </mxCell>
                <mxCell id="29" value="" style="edgeStyle=elbowEdgeStyle;elbow=vertical;endArrow=block;html=1;curved=0;rounded=0;endSize=12;startSize=8;strokeWidth=2;fontSize=14;exitX=0.5;exitY=0;exitDx=0;exitDy=0;dashed=1;endFill=0;" parent="1" source="19" target="7" edge="1">
                    <mxGeometry width="50" height="50" relative="1" as="geometry">
                        <mxPoint x="420" y="500" as="sourcePoint"/>
                        <mxPoint x="470" y="450" as="targetPoint"/>
                    </mxGeometry>
                </mxCell>
                <mxCell id="30" value="" style="edgeStyle=elbowEdgeStyle;elbow=vertical;endArrow=block;html=1;curved=0;rounded=0;endSize=12;startSize=8;strokeWidth=2;fontSize=14;exitX=0.5;exitY=0;exitDx=0;exitDy=0;dashed=1;endFill=0;" parent="1" source="20" target="7" edge="1">
                    <mxGeometry width="50" height="50" relative="1" as="geometry">
                        <mxPoint x="465" y="510" as="sourcePoint"/>
                        <mxPoint x="615" y="450" as="targetPoint"/>
                    </mxGeometry>
                </mxCell>
            </root>
        </mxGraphModel>
    </diagram>
</mxfile>